<?xml version="1.0" standalone="no"?>
<!DOCTYPE svg PUBLIC "-//W3C//DTD SVG 20010904//EN"
 "http://www.w3.org/TR/2001/REC-SVG-20010904/DTD/svg10.dtd">
<svg version="1.0" xmlns="http://www.w3.org/2000/svg"
 width="300.000000pt" height="430.000000pt" viewBox="0 0 300.000000 430.000000"
 preserveAspectRatio="xMidYMid meet">

<g transform="translate(0.000000,430.000000) scale(0.100000,-0.100000)"
fill="#000000" stroke="none">
<path d="M1210 4220 c-80 -17 -137 -32 -239 -66 -24 -8 -46 -13 -48 -10 -6 5
-253 -121 -278 -143 -21 -18 -70 -51 -145 -96 -50 -31 -63 -42 -135 -113 -27
-27 -57 -51 -66 -54 -21 -8 -30 -77 -17 -124 9 -33 7 -38 -26 -72 -78 -80
-130 -164 -120 -194 3 -10 0 -26 -7 -34 -8 -10 -13 -53 -14 -122 -1 -59 -6
-141 -9 -183 -5 -47 -3 -100 4 -135 6 -33 13 -106 16 -164 2 -58 8 -125 13
-150 5 -25 9 -56 10 -70 0 -14 5 -26 11 -28 16 -6 12 -32 -5 -32 -18 0 -18 3
0 -51 10 -30 13 -53 7 -68 l-8 -23 -26 31 c-15 17 -31 31 -37 31 -11 0 -24
-114 -17 -150 12 -53 50 -176 58 -184 5 -6 8 -2 8 10 1 35 10 138 16 172 5 35
26 39 33 6 4 -22 21 -36 37 -30 5 2 11 -12 12 -31 2 -28 -1 -36 -18 -40 -15
-4 -20 -14 -20 -39 0 -19 -5 -34 -11 -34 -16 0 -2 -70 18 -92 10 -11 11 -18 5
-18 -7 0 -9 -7 -5 -17 5 -12 3 -14 -7 -8 -9 6 -10 4 -3 -10 6 -9 7 -33 4 -54
-10 -56 -4 -347 8 -438 7 -45 18 -107 26 -138 8 -31 15 -65 15 -76 0 -24 38
-166 51 -191 5 -10 9 -34 9 -53 0 -47 18 -123 37 -158 8 -15 12 -34 9 -42 -2
-7 -1 -15 4 -17 5 -2 11 -18 13 -36 2 -17 7 -35 10 -39 4 -3 7 -15 7 -25 0
-10 4 -18 10 -18 5 0 12 -15 15 -34 5 -22 15 -37 31 -45 13 -6 24 -16 24 -22
0 -13 58 -69 71 -69 5 0 9 -9 9 -19 0 -12 9 -21 25 -25 14 -4 25 -13 25 -21 0
-8 4 -15 8 -15 11 0 52 -35 52 -44 0 -12 90 -95 110 -101 11 -4 20 -11 20 -16
0 -5 6 -9 14 -9 8 0 16 -3 18 -8 2 -4 35 -18 73 -31 39 -13 72 -26 75 -30 3
-4 27 -19 54 -34 l49 -27 263 0 c276 0 261 -2 369 46 17 8 49 18 73 24 23 6
42 15 42 19 0 5 11 12 24 15 14 3 46 26 72 51 25 25 50 45 55 45 5 0 9 8 9 19
0 13 16 24 63 40 34 13 72 25 85 28 12 3 22 12 22 19 0 8 7 14 15 14 8 0 15 9
15 20 0 11 5 20 10 20 6 0 10 5 10 11 0 6 18 28 40 49 22 21 40 43 40 48 0 5
11 13 25 16 18 5 25 13 25 31 0 18 5 25 20 25 13 0 20 7 20 20 0 11 5 20 10
20 6 0 10 9 10 21 0 11 13 32 29 47 16 15 32 41 36 59 3 18 14 35 23 37 12 4
23 31 35 83 11 43 23 83 27 88 5 6 9 33 11 60 1 28 7 56 12 63 5 6 7 12 4 12
-4 0 0 18 8 40 8 22 16 61 19 87 4 27 12 53 19 58 8 7 11 33 9 83 -2 46 1 78
8 87 8 10 12 80 11 234 0 174 3 222 13 228 21 13 28 49 12 62 -11 9 -16 9 -22
0 -12 -21 -23 19 -23 90 l-1 64 60 59 c33 32 60 64 60 73 0 8 9 19 21 26 15 8
20 18 16 35 -2 13 0 25 5 26 5 2 18 51 30 110 13 67 25 105 31 101 6 -4 8 0 4
11 -4 10 -1 27 7 38 8 11 12 26 10 33 -3 7 4 16 15 20 19 6 20 12 17 116 -2
60 -1 109 3 109 3 0 6 67 6 148 0 112 -3 153 -14 165 -10 13 -10 17 -1 17 18
0 4 45 -33 110 -18 30 -40 73 -49 95 -74 181 -94 225 -122 257 -17 20 -45 56
-63 80 -40 54 -54 69 -139 144 -104 92 -131 114 -141 114 -5 0 -22 13 -37 29
-17 18 -42 31 -67 35 -21 3 -39 10 -39 15 0 9 -86 49 -117 54 -10 1 -24 6 -31
11 -7 4 -36 9 -65 12 -28 2 -86 11 -127 20 -41 9 -165 20 -275 24 -110 5 -220
11 -245 13 -25 3 -83 -3 -130 -13z m1070 -160 c13 -8 13 -10 -2 -10 -9 0 -20
5 -23 10 -8 13 5 13 25 0z m-1197 -754 c15 -6 27 -14 27 -18 0 -5 9 -8 20 -8
11 0 20 -4 20 -9 0 -15 52 -23 61 -9 7 10 14 9 38 -5 16 -9 42 -17 58 -16 15
1 46 -7 68 -17 22 -10 44 -18 48 -18 4 -1 11 -6 15 -13 4 -7 24 -10 46 -9 35
3 37 2 33 -20 -2 -13 -1 -24 4 -24 4 0 9 10 11 23 3 20 8 22 54 20 81 -3 104
-16 104 -58 0 -19 5 -35 10 -35 6 0 10 9 10 19 0 24 22 40 28 22 3 -10 6 -10
12 -1 5 8 18 4 44 -14 29 -19 45 -24 68 -19 28 6 31 4 26 -15 -7 -25 13 -45
35 -36 8 3 17 14 20 25 6 23 23 25 31 4 3 -9 0 -15 -9 -15 -8 0 -15 -4 -15
-10 0 -5 20 -10 43 -10 24 0 66 -7 93 -15 67 -20 102 -19 148 6 l38 20 24 -22
c22 -21 80 -37 69 -19 -6 9 20 21 29 13 3 -4 6 -14 6 -24 0 -10 7 -22 15 -26
9 -5 16 -30 19 -68 3 -33 10 -80 16 -105 6 -25 12 -54 14 -65 1 -11 11 -38 23
-60 62 -118 103 -441 103 -804 0 -119 -3 -140 -20 -166 -11 -16 -30 -45 -41
-62 -12 -18 -25 -33 -31 -33 -5 0 -7 -4 -3 -10 8 -13 -17 -50 -34 -50 -8 0
-11 -7 -8 -19 3 -14 1 -18 -9 -14 -8 3 -23 -6 -35 -21 -11 -14 -25 -24 -30
-20 -5 3 -16 -2 -25 -10 -8 -9 -22 -19 -30 -24 -10 -5 -16 -25 -17 -49 -1 -22
-7 -40 -13 -40 -7 0 -11 11 -9 24 2 25 -18 48 -35 38 -5 -3 -10 -13 -10 -21 0
-21 -18 -17 -25 6 -4 11 -10 18 -15 15 -4 -3 -3 -18 3 -35 14 -36 11 -39 -41
-44 -31 -3 -42 0 -44 12 -3 14 -5 14 -19 -1 -13 -12 -19 -13 -29 -4 -10 10
-10 8 -2 -9 10 -18 8 -23 -12 -32 -14 -6 -28 -6 -39 -1 -13 8 -15 6 -11 -5 4
-10 0 -14 -13 -12 -10 2 -19 13 -21 26 -2 14 0 20 7 16 17 -11 13 0 -14 40
-14 20 -25 47 -25 58 0 12 -15 44 -32 71 -18 26 -40 59 -48 72 -13 22 -20 24
-58 19 -24 -3 -52 -1 -63 4 -16 9 -17 8 -12 -7 6 -15 2 -14 -18 4 -13 12 -37
32 -53 46 -25 20 -27 26 -17 45 12 23 2 36 -23 26 -10 -4 -17 2 -22 20 -14 56
-119 43 -226 -27 -38 -26 -139 -14 -171 20 -46 50 -129 77 -165 54 -24 -15 -9
-44 26 -53 21 -6 32 -15 32 -27 0 -27 -43 -19 -81 16 -40 36 -49 61 -36 98 9
29 51 75 68 75 15 0 69 52 63 61 -3 5 -11 4 -19 -3 -7 -7 -32 -24 -55 -38 -40
-24 -100 -109 -100 -142 0 -8 11 -25 25 -38 34 -32 36 -101 3 -115 -13 -6 -21
-14 -20 -19 2 -5 -2 -13 -10 -17 -18 -12 -58 -11 -58 1 0 17 -36 11 -64 -11
-14 -11 -26 -27 -26 -35 0 -8 -4 -14 -8 -14 -19 0 -50 -37 -56 -67 -5 -19 -15
-35 -27 -38 -11 -4 -17 -10 -14 -14 2 -5 -4 -16 -14 -25 -16 -15 -20 -15 -31
-1 -7 8 -17 12 -22 8 -7 -3 -9 5 -6 24 4 28 2 30 -25 27 -16 -2 -34 -7 -40
-11 -7 -4 -6 1 2 10 9 12 10 17 2 17 -7 0 -9 4 -6 10 3 6 -1 7 -9 4 -9 -3 -16
-1 -16 5 0 7 -9 21 -20 33 -11 12 -20 19 -20 15 0 -4 -16 9 -36 28 -25 25 -42
34 -55 30 -11 -4 -19 -2 -19 4 0 6 -7 11 -15 11 -8 0 -15 9 -15 20 0 12 -14
56 -31 100 -33 87 -41 158 -28 261 33 261 41 331 54 463 8 82 15 168 15 191 0
23 7 56 15 72 23 47 52 171 57 248 3 39 3 58 1 43 -4 -26 -33 -61 -33 -40 0 6
5 14 10 17 6 3 10 21 10 40 0 19 4 37 10 40 6 3 10 14 10 24 0 21 22 71 33 71
4 0 7 9 7 20 0 11 6 20 13 20 6 1 25 28 42 60 28 57 45 75 45 48 1 -8 6 -6 14
4 9 12 16 14 23 7 13 -13 36 -2 28 12 -4 5 -2 9 3 9 6 0 13 -12 16 -26 5 -18
11 -24 23 -20 8 4 22 1 30 -5 10 -9 20 -9 40 2 21 11 27 11 30 2 5 -15 40 -17
45 -4 2 6 32 21 68 34 71 26 157 32 203 13z m1794 -48 c-3 -8 -6 -5 -6 6 -1
11 2 17 5 13 3 -3 4 -12 1 -19z m-1027 -1699 c0 -6 -4 -7 -10 -4 -5 3 -10 11
-10 16 0 6 5 7 10 4 6 -3 10 -11 10 -16z m-350 -360 c0 -4 -7 -9 -15 -13 -8
-3 -15 -16 -14 -28 0 -22 1 -22 9 -3 5 11 9 16 9 10 1 -11 51 -12 69 -1 7 4
16 5 21 2 5 -3 21 0 36 8 15 8 33 12 40 10 14 -6 8 -44 -7 -44 -5 0 -7 -4 -4
-8 2 -4 -10 -6 -28 -4 -22 3 -39 -2 -51 -14 -16 -16 -39 -18 -206 -19 l-189
-2 0 28 c0 20 4 27 14 23 7 -3 16 2 19 10 4 9 13 13 22 10 11 -4 15 0 16 17
l0 24 9 -22 c11 -27 35 -30 44 -7 5 13 9 14 21 4 12 -10 18 -10 29 -1 8 7 27
16 41 19 33 9 115 9 115 1z m-349 -83 c5 3 9 0 9 -5 0 -6 -15 -10 -35 -8 -20
1 -35 7 -35 14 0 9 7 10 26 3 14 -6 30 -8 35 -4z"/>
<path d="M1540 3170 c0 -5 5 -10 11 -10 5 0 7 5 4 10 -3 6 -8 10 -11 10 -2 0
-4 -4 -4 -10z"/>
<path d="M1598 3143 c7 -3 16 -2 19 1 4 3 -2 6 -13 5 -11 0 -14 -3 -6 -6z"/>
<path d="M1638 3128 c5 -5 16 -8 23 -6 8 3 3 7 -10 11 -17 4 -21 3 -13 -5z"/>
<path d="M965 2709 c-3 -3 -80 -5 -172 -4 -145 2 -174 0 -208 -16 -52 -24
-141 -115 -149 -154 -6 -24 -5 -28 5 -17 7 6 18 12 23 12 7 0 8 -3 1 -8 -5 -4
-16 -18 -23 -31 -12 -20 -12 -25 0 -32 10 -7 9 -9 -4 -9 -9 0 -24 -14 -32 -32
-18 -36 -20 -52 -6 -43 16 10 12 0 -10 -25 -21 -24 -27 -70 -10 -70 6 0 10 5
10 10 0 6 9 10 21 10 14 0 19 5 16 14 -4 10 -1 13 9 9 9 -3 14 0 12 7 -2 7 3
14 10 15 7 2 8 1 2 -2 -15 -7 -2 -23 21 -23 32 0 21 -17 -18 -28 -26 -7 -31
-10 -15 -11 12 -1 22 -7 22 -16 0 -23 36 -36 93 -35 28 1 70 -2 92 -7 l40 -9
-29 -19 -28 -19 23 -9 c13 -5 99 -9 192 -10 92 0 167 -4 167 -9 0 -13 58 -10
81 5 17 10 23 10 26 0 3 -7 9 -13 14 -13 4 0 5 8 2 18 -6 14 -4 15 9 4 13 -10
20 -6 48 25 17 21 45 66 60 101 27 58 28 66 19 124 -12 72 -20 84 -60 93 -16
4 -29 11 -29 16 0 5 -7 9 -15 9 -8 0 -15 5 -15 11 0 6 -7 17 -15 25 -17 17
-21 59 -5 49 13 -8 12 -5 -1 33 -6 18 -15 30 -19 27 -5 -3 -13 3 -19 12 -6 10
-11 14 -11 9 0 -5 -6 -3 -14 3 -15 12 -105 21 -111 10z m-90 -183 c17 -9 36
-16 43 -16 6 0 12 -6 12 -13 0 -11 -109 -39 -200 -51 -30 -5 -60 -18 -60 -27
0 -5 -13 -9 -30 -9 -16 0 -30 -4 -30 -10 0 -5 -7 -10 -15 -10 -9 0 -25 -8 -35
-18 -14 -13 -30 -17 -52 -14 -31 5 -31 5 -9 13 12 5 26 7 29 6 4 -2 15 4 24
14 18 19 10 32 -27 42 -11 3 -1 4 23 1 36 -5 41 -3 36 10 -3 9 -1 16 5 16 6 0
10 5 9 12 -2 7 2 12 9 13 6 0 23 10 37 23 15 12 35 22 45 22 11 0 23 5 27 11
9 16 121 5 159 -15z m-397 -123 c-10 -2 -28 -2 -40 0 -13 2 -5 4 17 4 22 1 32
-1 23 -4z m442 -33 c0 -5 -5 -10 -11 -10 -5 0 -7 5 -4 10 3 6 8 10 11 10 2 0
4 -4 4 -10z m121 -16 c15 -18 11 -22 -31 -30 -29 -6 -32 -5 -27 10 4 10 7 24
7 31 0 16 34 9 51 -11z m-244 -9 c10 -23 9 -25 -13 -25 -23 0 -49 31 -37 44
14 14 39 4 50 -19z m41 -134 c-6 -33 -138 -24 -138 10 0 10 44 15 98 10 34 -2
42 -7 40 -20z m49 -3 c-3 -8 -6 -5 -6 6 -1 11 2 17 5 13 3 -3 4 -12 1 -19z"/>
<path d="M1685 2700 c3 -5 0 -7 -8 -4 -20 7 -33 -16 -16 -28 11 -8 11 -9 -2
-5 -9 3 -21 1 -27 -5 -8 -8 -17 -4 -31 13 -11 13 -20 18 -21 12 0 -7 5 -13 10
-13 6 0 10 -8 10 -17 0 -14 -2 -15 -9 -4 -12 19 -19 2 -16 -39 4 -47 4 -47 15
-30 7 12 10 12 10 1 0 -8 6 -11 16 -7 8 3 12 2 9 -4 -3 -6 1 -10 9 -10 9 0 16
-4 16 -9 0 -11 -25 -21 -62 -26 -65 -9 -109 -73 -97 -140 23 -123 62 -193 108
-195 7 0 28 -9 46 -20 29 -18 86 -23 100 -9 2 3 42 0 88 -6 64 -9 86 -8 95 1
8 9 3 14 -24 18 -18 4 -34 11 -34 17 0 6 -4 7 -10 4 -5 -3 -10 -2 -10 4 0 5
-8 12 -17 14 -10 3 -2 5 17 6 20 0 41 6 47 12 9 9 16 7 30 -6 15 -15 19 -16
21 -4 2 10 13 13 40 11 26 -3 42 1 51 12 7 8 19 12 27 9 8 -3 21 0 29 7 8 7
15 8 15 3 0 -5 6 -10 13 -10 6 -1 38 -9 70 -19 31 -9 60 -14 63 -11 17 17 -12
60 -73 109 -96 78 -151 103 -292 132 -30 6 -56 16 -58 22 -5 16 28 48 64 63
43 17 104 31 98 21 -2 -4 34 -10 81 -14 99 -8 122 -14 102 -27 -9 -6 -4 -9 15
-9 16 0 48 -14 73 -30 24 -17 41 -24 38 -16 -3 8 -19 20 -36 27 -17 7 -26 15
-20 17 6 2 20 -2 31 -8 17 -8 19 -8 15 4 -4 11 0 13 15 9 12 -3 24 -9 27 -14
3 -5 10 -9 16 -9 7 0 0 13 -15 28 -15 16 -25 31 -22 34 3 3 -3 11 -12 19 -16
13 -17 12 -4 -4 12 -15 12 -17 -3 -11 -9 3 -16 15 -16 25 0 10 -4 19 -9 19 -4
0 -30 19 -56 42 l-48 42 -218 0 c-121 1 -219 4 -219 8 0 5 -12 8 -26 8 -14 0
-22 -4 -19 -10z m263 -277 c-10 -2 -28 -2 -40 0 -13 2 -5 4 17 4 22 1 32 -1
23 -4z m-148 -79 c7 -19 10 -37 8 -39 -8 -8 -60 9 -65 22 -5 13 23 53 38 53 4
0 13 -16 19 -36z m120 22 c0 -3 -4 -8 -10 -11 -5 -3 -10 -1 -10 4 0 6 5 11 10
11 6 0 10 -2 10 -4z m100 -31 c15 -18 5 -35 -21 -35 -20 0 -23 8 -13 34 8 20
18 20 34 1z"/>
<path d="M390 2240 c0 -6 7 -10 15 -10 8 0 15 2 15 4 0 2 -7 6 -15 10 -8 3
-15 1 -15 -4z"/>
<path d="M2803 2204 c-3 -9 4 -35 17 -58 24 -45 29 -97 18 -191 l-8 -60 16 40
c21 54 30 202 15 248 -13 40 -46 51 -58 21z"/>
</g>
</svg>
